<svg xmlns="http://www.w3.org/2000/svg" viewBox="0 0 1536 654"><g transform="translate(0.000000,654.000000) scale(0.100000,-0.100000)"
fill="currentColor" stroke="none">
<path d="M7774 6515 c-27 -13 -68 -44 -91 -67 -91 -94 -122 -168 -243 -593
-65 -225 -155 -506 -176 -548 -21 -42 -62 -85 -97 -103 -16 -9 -159 -51 -319
-95 -392 -107 -891 -284 -1377 -489 -173 -73 -556 -221 -741 -287 -267 -95
-749 -297 -961 -403 -198 -100 -501 -209 -1095 -395 -283 -89 -578 -192 -614
-215 -8 -5 -53 -30 -100 -56 -325 -180 -652 -469 -811 -720 -79 -123 -170
-283 -209 -367 -16 -33 -35 -55 -64 -72 -22 -13 -155 -62 -294 -109 -271 -92
-387 -142 -468 -202 -64 -48 -74 -63 -80 -127 -3 -29 -12 -82 -21 -118 -9 -36
-13 -77 -10 -92 10 -37 53 -84 101 -110 39 -21 52 -22 301 -22 279 0 369 8
610 55 83 16 184 34 225 39 218 31 840 51 980 32 47 -6 146 -16 220 -21 74 -6
198 -19 275 -30 384 -54 893 -71 1411 -46 412 20 554 20 597 2 54 -22 95 -73
147 -180 105 -219 343 -477 625 -676 375 -265 806 -459 1097 -495 63 -8 108
10 108 42 0 22 -94 199 -174 326 -83 134 -81 129 -126 265 -57 175 -87 362
-57 362 16 0 95 -54 202 -140 99 -78 364 -254 466 -309 42 -23 111 -50 155
-61 191 -49 733 -124 853 -118 65 3 76 6 97 31 13 16 24 38 24 50 0 30 -109
136 -268 261 -166 131 -299 252 -348 317 -23 30 -93 125 -157 212 -64 86 -148
191 -186 232 -64 69 -191 245 -191 265 0 5 21 16 48 26 167 61 345 131 420
166 48 22 118 49 156 59 95 27 396 142 611 234 99 42 284 114 410 160 127 46
262 96 300 111 39 14 167 53 285 85 549 153 830 288 1150 552 127 106 191 148
277 183 70 28 586 131 1023 205 63 11 170 35 238 55 121 35 172 38 172 11 0
-7 -16 -53 -36 -102 -33 -79 -37 -102 -42 -200 -7 -179 30 -305 140 -475 61
-94 100 -135 120 -127 8 2 26 29 42 58 83 155 135 183 431 234 273 46 432 81
461 100 13 8 33 33 44 55 31 61 47 65 137 33 143 -50 202 -40 594 102 121 45
174 58 315 79 268 41 288 45 509 92 236 51 301 54 410 14 90 -33 113 -35 135
-15 11 10 20 30 20 44 0 77 -197 307 -315 368 -65 34 -419 155 -575 197 -145
39 -343 72 -576 97 -203 22 -223 22 -460 10 -137 -7 -280 -16 -319 -22 -195
-26 -181 -27 -295 32 -57 29 -147 85 -199 124 -53 39 -136 99 -186 134 -49 35
-112 83 -140 106 -68 58 -213 161 -313 224 -180 113 -382 197 -562 235 -245
53 -654 115 -1078 166 -756 91 -972 131 -1312 247 -155 52 -321 130 -416 194
-132 89 -327 288 -413 419 -20 31 -79 138 -131 239 -101 194 -144 255 -197
277 -42 18 -41 18 -99 -11z"/>
</g></svg>