<svg xmlns="http://www.w3.org/2000/svg" viewBox="0 0 1536 1012"><g transform="translate(0.000000,1012.000000) scale(0.100000,-0.100000)"
fill="currentColor" stroke="none">
<path d="M1150 10094 c-25 -15 -88 -66 -141 -114 -52 -47 -142 -123 -200 -167
-333 -259 -720 -787 -790 -1079 -19 -78 -21 -107 -15 -235 19 -475 76 -676
276 -975 40 -60 104 -148 141 -196 125 -156 154 -177 469 -340 l285 -147 250
-72 c245 -70 255 -72 460 -91 116 -10 327 -21 470 -25 221 -4 288 -2 450 15
105 12 205 22 224 24 l35 3 12 -70 c6 -38 34 -146 62 -240 42 -141 132 -527
182 -780 22 -109 102 -307 228 -560 114 -231 126 -260 154 -380 16 -71 52
-211 80 -310 27 -99 73 -268 102 -375 l53 -195 18 -346 c18 -373 19 -364 -30
-559 -14 -52 -38 -167 -55 -255 -30 -154 -33 -163 -102 -295 -39 -74 -98 -178
-132 -230 -102 -161 -109 -229 -41 -430 48 -142 75 -263 95 -418 8 -67 25
-126 60 -215 122 -312 154 -369 311 -573 82 -107 118 -176 149 -288 11 -38 28
-78 37 -88 42 -46 57 -48 375 -50 316 -1 497 13 614 49 l52 16 81 -38 81 -38
453 7 c248 4 472 10 497 14 43 7 46 9 89 85 l43 78 -10 82 c-10 78 -12 84 -52
119 -23 20 -62 47 -88 60 -45 22 -57 23 -266 23 l-218 0 -52 56 c-87 93 -368
413 -383 435 -7 12 -23 68 -34 125 -18 92 -20 130 -16 324 6 257 20 324 107
511 44 93 64 160 140 465 49 196 114 432 144 525 181 559 226 714 243 840 16
123 18 128 53 165 22 24 46 39 60 39 53 0 146 -35 190 -71 133 -109 467 -276
630 -313 230 -53 465 -88 670 -101 208 -13 222 -15 430 -68 118 -31 297 -74
396 -97 l181 -42 249 31 c137 17 298 43 357 57 60 14 111 24 114 21 11 -11
-16 -316 -35 -397 -25 -103 -43 -496 -43 -927 0 -153 -6 -409 -12 -568 -12
-280 -13 -292 -36 -320 -51 -66 -51 -61 -41 -542 11 -553 15 -599 44 -615 14
-8 80 -12 191 -12 l170 -1 69 33 c80 37 121 40 179 11 38 -20 51 -21 157 -15
63 4 133 11 155 16 22 5 91 10 153 10 120 0 165 12 177 49 3 10 -2 51 -11 91
-13 59 -25 82 -67 133 -85 101 -120 131 -185 155 l-62 24 -47 95 -47 96 17
181 c21 241 82 531 191 908 47 164 108 393 135 510 138 595 148 629 201 710
46 71 121 141 192 181 30 17 51 18 213 12 227 -8 335 3 466 49 112 39 112 41
26 -57 -46 -53 -49 -60 -62 -149 -8 -51 -15 -122 -15 -157 0 -85 75 -812 101
-971 47 -294 60 -395 74 -565 36 -439 32 -507 -32 -649 l-36 -80 6 -148 c5
-138 8 -153 36 -213 40 -87 150 -196 240 -239 l66 -31 180 0 c147 1 199 5 286
23 86 18 134 22 255 21 82 -1 185 2 229 7 l80 9 19 40 c24 48 66 206 66 247 0
62 -107 114 -228 111 -43 -2 -79 4 -113 17 -35 14 -74 20 -134 20 -82 0 -84 1
-106 31 -12 17 -43 96 -69 176 l-48 145 19 67 c40 137 78 292 119 485 23 112
73 299 112 425 112 357 204 777 278 1266 39 259 69 401 125 585 60 199 108
406 135 584 39 249 35 230 155 751 124 535 124 539 136 775 18 368 22 399 56
465 66 130 116 263 144 389 16 72 34 143 40 157 43 109 130 96 534 -81 427
-187 407 -180 519 -180 57 0 124 7 160 16 85 22 144 81 215 217 50 93 59 105
96 120 60 25 126 138 161 274 22 90 24 111 17 185 -7 64 -5 93 6 128 20 61 5
143 -47 253 -35 75 -53 98 -131 172 -65 62 -94 98 -104 128 -26 76 -87 341
-87 379 0 27 -9 50 -33 81 -21 28 -38 65 -45 99 -8 40 -26 76 -67 134 -32 43
-69 98 -82 122 l-26 44 38 121 c42 136 43 181 4 326 -10 41 -19 89 -19 105 0
58 -10 62 -91 38 -75 -23 -93 -33 -209 -122 -36 -27 -86 -61 -113 -75 l-47
-26 -86 31 c-47 18 -127 43 -177 56 -126 34 -483 92 -652 106 l-140 12 -130
-52 -130 -51 -97 6 c-126 8 -169 -8 -255 -90 -64 -61 -66 -66 -102 -204 -10
-36 -20 -47 -74 -81 -41 -26 -169 -145 -360 -334 l-297 -294 -98 -32 c-53 -17
-135 -36 -182 -42 -190 -25 -297 -51 -455 -111 -197 -75 -250 -99 -439 -201
l-149 -80 -126 4 c-126 5 -354 45 -501 88 -265 78 -1017 215 -1325 242 -169
14 -2145 15 -2500 0 -328 -13 -545 -40 -910 -112 -137 -27 -340 -61 -450 -75
-228 -29 -227 -29 -504 -137 -767 -298 -1112 -403 -1532 -468 -265 -41 -337
-44 -619 -31 -271 13 -393 32 -566 89 -160 53 -217 82 -419 216 -160 107 -175
120 -265 226 -52 61 -100 119 -106 128 -6 10 -33 78 -59 152 l-47 135 5 160
c5 163 8 179 61 318 63 166 230 362 441 517 257 189 336 250 409 320 l78 75
-4 122 c-6 139 -13 158 -82 198 -57 33 -92 43 -180 50 -65 6 -75 4 -116 -21z
m3385 -8913 c39 -92 88 -174 257 -430 167 -252 206 -317 191 -319 -10 -1 -72
6 -138 15 l-120 18 -26 54 c-28 57 -57 130 -170 421 -69 182 -71 186 -65 256
5 64 14 110 21 102 1 -2 24 -54 50 -117z"/>
</g></svg>